<svg width="32" height="32" viewBox="0 0 32 32" fill="none" xmlns="http://www.w3.org/2000/svg">
<path d="M9.896 20H11.66V10.976H10.496L8.144 11.96V13.568L9.896 12.836V20ZM16.0994 20.12C18.0554 20.12 19.2194 18.944 19.2194 17.06C19.2194 15.26 18.1874 14.036 16.5794 14.036C15.6674 14.036 15.1874 14.36 14.8394 14.792H14.7194C14.8034 13.328 15.5714 12.428 17.2874 12.428C17.7914 12.428 18.3074 12.524 18.7274 12.692V11.132C18.2834 10.964 17.7794 10.88 17.0594 10.88C14.6114 10.88 12.9914 12.32 12.9914 16.208C12.9914 18.968 14.2274 20.12 16.0994 20.12ZM16.0994 18.668C15.2714 18.668 14.7914 18.128 14.8034 17.072C14.8034 16.04 15.2834 15.488 16.0994 15.488C16.8674 15.488 17.4074 16.028 17.4074 17.06C17.4074 18.116 16.8914 18.668 16.0994 18.668ZM25.5064 16.448V15.044H23.5984V13.052H22.1944V15.044H20.2864V16.448H22.1944V18.596H23.5984V16.448H25.5064Z" fill="white"/>
<circle cx="16" cy="16" r="15" stroke="white" stroke-width="2"/>
</svg>
