<svg width="72" height="72" viewBox="0 0 72 72" fill="none" xmlns="http://www.w3.org/2000/svg">
<circle cx="36" cy="36" r="36" fill="#39404C"/>
<path fill-rule="evenodd" clip-rule="evenodd" d="M51.5 26.4V26C51.5 24.3 50.2 23 48.5 23C46.8 23 45.5 24.3 45.5 26H42.7L42.3 24.8C41.7 23.1 40 22 38.2 22H33.7C31.9 22 30.3 23.1 29.6 24.8L29.2 26H22C20.3 26 19 27.3 19 29V46C19 47.7 20.3 49 22 49H50C51.7 49 53 47.7 53 46V29C53 27.9 52.4 26.9 51.5 26.4ZM47.5 26C47.5 25.4 47.9 25 48.5 25C49.1 25 49.5 25.4 49.5 26V27H47.5V26ZM38.2 24H33.7C32.7 24 31.8 24.6 31.5 25.5L31 27H41L40.4 25.5C40 24.6 39.2 24 38.2 24ZM51 46C51 46.6 50.6 47 50 47H22C21.4 47 21 46.6 21 46V29C21 28.4 21.4 28 22 28H29.5H29.9H42H42.5H45.5H46.5H50H50.1C50.1 28 50.2 28 50.2 28.1C50.6 28.2 50.9 28.6 50.9 29.1V46H51ZM28.9 37C28.9 33.1 32.1 29.9 36 29.9C39.9 29.9 43.1 33.1 43.1 37C43.1 40.9 39.9 44.1 36 44.1C32.1 44.1 28.9 40.9 28.9 37ZM36 43.1C32.7 43.1 29.9 40.4 29.9 37C29.9 33.6 32.6 30.9 36 30.9C39.4 30.9 42.1 33.6 42.1 37C42.1 40.4 39.3 43.1 36 43.1ZM33 37C33 35.3 34.3 34 36 34C37.7 34 39 35.3 39 37C39 38.7 37.7 40 36 40C34.3 40 33 38.7 33 37ZM36 39C34.9 39 34 38.1 34 37C34 35.9 34.9 35 36 35C37.1 35 38 35.9 38 37C38 38.1 37.1 39 36 39ZM47 44C47.6 44 48 43.6 48 43C48 42.4 47.6 42 47 42C46.4 42 46 42.4 46 43C46 43.6 46.4 44 47 44ZM26.5 30H24.5C23.7 30 23 30.7 23 31.5V32.5C23 33.3 23.7 34 24.5 34H26.5C27.3 34 28 33.3 28 32.5V31.5C28 30.7 27.3 30 26.5 30ZM26.5 33C26.8 33 27 32.8 27 32.5V31.5C27 31.2 26.8 31 26.5 31H24.5C24.2 31 24 31.2 24 31.5V32.5C24 32.8 24.2 33 24.5 33H26.5Z" fill="#48CCFD"/>
</svg>
