<svg width="72" height="72" viewBox="0 0 72 72" fill="none" xmlns="http://www.w3.org/2000/svg">
<circle cx="36" cy="36" r="36" fill="#39404C"/>
<path fill-rule="evenodd" clip-rule="evenodd" d="M50.0001 34.5C50.0001 34.8 50.0001 35.6 49.6001 38.9C51.7001 39.9 52.8001 42.3 52.0001 44.7L51.2001 47.8C50.6001 50 48.6001 51.5 46.4001 51.5C46.0001 51.5 45.5001 51.4 45.1001 51.3L43.2001 50.8C42.6001 51.1 41.8001 51.2 41.1001 51C40.3001 50.8 39.7001 50.3 39.3001 49.6C38.9001 48.9 38.8001 48.1 39.0001 47.3L41.4001 38.6C41.9001 37 43.5001 36.1 45.1001 36.5C45.9001 36.7 46.6001 37.3 47.0001 38.1L47.7001 38.3C47.8501 36.85 47.9501 35.95 48.0126 35.3875L48.0126 35.3874L48.0126 35.3871C48.0751 34.8249 48.1001 34.6 48.1001 34.5C48.1001 32.2 47.6001 30 46.6001 28.2C45.6001 29 44.3001 29.8 43.0001 29.8C42.2001 29.8 41.4001 29.5 40.5001 28.8C39.2001 27.7 37.7001 27.1 36.1001 27.1C34.5001 27.1 33.0001 27.7 31.7001 28.8C29.4001 30.8 27.0001 29.2 25.6001 28.2C24.6001 30 24.0001 32.2 24.0001 34.5C24.0001 34.5529 24.0071 34.6409 24.0193 34.7935C24.053 35.2176 24.1266 36.141 24.2001 38.2L24.9001 38C25.3001 37.2 26.0001 36.6 26.8001 36.4C28.4001 35.9 30.1001 36.9 30.5001 38.5L32.8001 47.2C33.0001 48 32.9001 48.8 32.5001 49.5C32.1001 50.2 31.5001 50.7 30.7001 50.9C30.0001 51.1 29.2001 51 28.6001 50.7L26.7001 51.2C26.3001 51.3 25.8001 51.4 25.4001 51.4C23.2001 51.4 21.2001 49.9 20.6001 47.7L19.8001 44.6C19.2001 42.2 20.3001 39.8 22.4001 38.8C22.0001 35.5 22.0001 34.8 22.0001 34.5C22.0001 26.2 28.0001 20 36.0001 20C44.0001 20 50.0001 26.2 50.0001 34.5ZM27.8001 38.4H27.5001C27.1001 38.5 26.9001 38.8 26.8001 39.2C26.8001 39.3 26.8001 39.4 26.7001 39.5L29.2001 48.8C29.3001 48.8 29.4001 48.8 29.5001 48.9C29.8001 49.1 30.1001 49.2 30.4001 49.1C30.7001 49 30.9001 48.8 31.0001 48.6C31.013 48.5612 31.0259 48.5242 31.0384 48.4883C31.1226 48.2467 31.1872 48.0612 31.1001 47.8L28.8001 39.1C28.6001 38.7 28.2001 38.4 27.8001 38.4ZM25.7001 39.9L28.1001 48.8L26.2001 49.3C24.6001 49.7 23.0001 48.8 22.5001 47.2L21.7001 44.1C21.3001 42.5 22.2001 40.9 23.8001 40.4L25.7001 39.9ZM36.0001 25.1C38.0001 25.1 40.1001 25.9 41.7001 27.3C42.7001 28.2 43.5001 27.9 45.4001 26.5C43.2001 23.7 39.9001 22 36.0001 22C32.1001 22 28.8001 23.7 26.6001 26.5C28.4001 27.7 29.4001 28.1 30.3001 27.3C31.9001 25.9 33.9001 25.1 36.0001 25.1ZM41.7001 49C41.4001 48.9 41.2001 48.8 41.1001 48.5C41.0872 48.4612 41.0743 48.4242 41.0618 48.3883C40.9776 48.1467 40.913 47.9612 41.0001 47.7L43.3001 39C43.4001 38.5 44.0001 38.1 44.5001 38.3C44.9001 38.4 45.1001 38.7 45.2001 39C45.2001 39.05 45.2251 39.1 45.2501 39.15C45.2751 39.2 45.3001 39.25 45.3001 39.3L42.8001 48.6C42.7001 48.6 42.6001 48.7 42.5001 48.8L42.5001 48.8C42.3001 49.1 42.0001 49.1 41.7001 49ZM49.4001 47.2L50.2001 44.1C50.7001 42.5 49.7001 40.9 48.1001 40.4L46.2001 39.9L43.8001 48.8L45.7001 49.3C46.5001 49.5 47.3001 49.4 48.0001 49C48.7001 48.6 49.2001 48 49.4001 47.2Z" fill="#48CCFD"/>
</svg>
