<svg width="80" height="80" viewBox="0 0 80 80" fill="none" xmlns="http://www.w3.org/2000/svg">
<path d="M49.4345 55V49.84H37.7945C39.3545 48.04 41.2345 45.88 42.5945 44.4C46.0345 40.52 48.3545 37.28 48.3545 32.72C48.3545 27.6 45.3145 24.28 39.7145 24.28C36.2745 24.28 33.1145 25.04 31.1945 26.36V33.88H36.1145V30C36.9145 29.6 37.7545 29.44 38.6345 29.44C41.3545 29.44 42.3145 31.08 42.3145 33.28C42.3145 35.92 40.9545 38.24 38.5145 41.12C36.4345 43.44 30.7945 49.96 30.7945 49.96V55H49.4345Z" fill="#48CCFD"/>
<circle cx="40" cy="40" r="39" stroke="#39404C" stroke-width="2"/>
</svg>
