<svg width="80" height="80" viewBox="0 0 80 80" fill="none" xmlns="http://www.w3.org/2000/svg">
<path d="M40.1058 56.4C46.8658 56.4 50.0658 52.04 50.0658 46.68C50.0658 42.88 47.6258 39.96 43.7458 39.52V39.28C46.3058 38.48 48.7858 36.2 48.7858 32.44C48.7858 28.24 45.7858 25.28 40.3458 25.28C36.9058 25.28 33.9058 26.16 31.9058 27.36V34.88H36.7858V30.84C37.5458 30.52 38.4658 30.36 39.3858 30.36C41.5058 30.36 42.7858 31.4 42.7858 33.52C42.7858 35.6 41.5058 37.6 36.7458 37.88V42.72C36.9458 42.68 38.1458 42.48 39.3858 42.48C42.2658 42.48 44.0258 43.92 44.0258 46.76C44.0258 49.6 42.3058 51.24 40.0658 51.24C37.7858 51.24 36.5458 49.56 36.4658 47.08H30.8258C30.9458 54.16 35.7058 56.4 40.1058 56.4Z" fill="#48CCFD"/>
<circle cx="40" cy="40" r="39" stroke="#39404C" stroke-width="2"/>
</svg>
