<svg width="40" height="40" viewBox="0 0 40 40" fill="none" xmlns="http://www.w3.org/2000/svg">
<path d="M34 12.8947C33.0801 13.4922 32.0917 13.7364 30.875 13.8421C32.1131 13.2839 32.9264 12.3934 32.9583 11C32.3182 11.853 31.2207 12.2312 29.8333 12.8947C29.1168 11.5518 27.7837 11 26.7083 11C23.4759 11 21.1795 13.0345 21.5 15.7368C21.1795 15.9001 21.2248 16.2469 21.5 16.6842C17.0496 16.39 13.2703 14.581 11.0833 11.9474C10.2991 12.5028 10.0461 13.2834 10.0417 13.8421C10.0461 15.6927 10.9516 17.0836 12.125 17.6316C11.4871 17.8749 10.6962 17.6705 10.0417 17.6316C10.0042 17.3491 10.0042 17.3681 10.0417 17.6316C10.0042 19.5889 11.7723 21.4255 14.2083 21.4211C13.6882 21.9468 13.235 22.0025 13.1667 22.3684C12.4368 22.0025 12.1155 21.974 12.125 22.3684C12.455 23.7261 14.3491 25.0401 16.2917 25.2105C14.8382 26.2955 12.6266 27.0219 10.0417 27.1053C9.80952 27.0219 9.40127 27.0004 9 27.1053C11.2698 28.2477 13.9659 29 17.3333 29C26.2964 29 31.4555 22.0757 31.9167 15.7368C31.4504 15.6779 31.4555 15.8738 31.9167 15.7368C32.4428 14.8423 33.3124 14.042 34 12.8947Z" fill="white"/>
</svg>
