<svg width="40" height="40" viewBox="0 0 40 40" fill="none" xmlns="http://www.w3.org/2000/svg">
<path d="M29.4052 22.1749C28.9686 21.6149 29.0935 21.3657 29.4052 20.8651C29.4108 20.8594 33.0143 15.8011 33.3855 14.0857L33.3878 14.0846C33.5723 13.4594 33.3878 13 32.4956 13H29.5435C28.792 13 28.4455 13.3943 28.2599 13.8354C28.2599 13.8354 26.7568 17.4903 24.6305 19.8594C23.9442 20.544 23.627 20.7634 23.2523 20.7634C23.0678 20.7634 22.7809 20.544 22.7809 19.9189V14.0846C22.7809 13.3349 22.5705 13 21.9484 13H17.3065C16.8351 13 16.555 13.3497 16.555 13.6754C16.555 14.3863 17.6181 14.5497 17.7284 16.5497V20.8891C17.7284 21.84 17.5585 22.0149 17.1816 22.0149C16.1781 22.0149 13.7424 18.3451 12.2989 14.1451C12.0075 13.3303 11.7229 13.0011 10.9658 13.0011H8.01254C7.16988 13.0011 7 13.3954 7 13.8366C7 14.616 8.00353 18.4914 11.6667 23.6114C14.108 27.1063 17.5461 29 20.6737 29C22.5537 29 22.7832 28.5794 22.7832 27.856C22.7832 24.5166 22.6133 24.2011 23.5549 24.2011C23.9915 24.2011 24.743 24.4206 26.4981 26.1063C28.504 28.1051 28.8336 29 29.9564 29H32.9085C33.7501 29 34.1764 28.5794 33.9312 27.7497C33.3698 26.0046 29.5762 22.4149 29.4052 22.1749Z" fill="white"/>
</svg>
